<?xml version="1.0" encoding="UTF-8" standalone="no"?>
<svg
   xmlns:dc="http://purl.org/dc/elements/1.1/"
   xmlns:cc="http://creativecommons.org/ns#"
   xmlns:rdf="http://www.w3.org/1999/02/22-rdf-syntax-ns#"
   xmlns:svg="http://www.w3.org/2000/svg"
   xmlns="http://www.w3.org/2000/svg"
   xmlns:sodipodi="http://sodipodi.sourceforge.net/DTD/sodipodi-0.dtd"
   xmlns:inkscape="http://www.inkscape.org/namespaces/inkscape"
   inkscape:version="1.0 (4035a4fb49, 2020-05-01)"
   sodipodi:docname="tkviolin.svg"
   viewBox="0 0 550 376"
   height="376"
   width="550"
   id="svg1486"
   version="1.1">
  <metadata
     id="metadata1492">
    <rdf:RDF>
      <cc:Work
         rdf:about="">
        <dc:format>image/svg+xml</dc:format>
        <dc:type
           rdf:resource="http://purl.org/dc/dcmitype/StillImage" />
        <dc:title></dc:title>
      </cc:Work>
    </rdf:RDF>
  </metadata>
  <defs
     id="defs1490">
    <clipPath
       id="clipPath1559"
       clipPathUnits="userSpaceOnUse">
      <path
         sodipodi:nodetypes="cccccccccccccccccccccccccccsccscccsccccscccccccccccccssssscccccccccccccccccccccccccc"
         id="path1561"
         d="m 178.05304,242.44695 -44.61024,38.01568 c -2.50639,3.02379 -6.32402,5.65421 -5.43081,9.69788 2.46609,6.63244 4.47006,4.94695 6.59456,5.43081 l 8.14621,14.74078 h -2.32749 c 3.60047,4.00846 3.87231,8.01691 3.87915,12.02537 h 3.87916 c -0.55032,1.42235 -0.44395,2.84471 1.55166,4.26706 l -5.43082,2.71541 c 0.99593,0.4244 1.85757,0.41232 4.26707,5.43081 l 9.30996,-1.16375 1.55166,-4.26706 6.59456,-3.87915 2.71541,-0.38792 1.55166,19.39576 c -1.22672,4.12059 4.47938,10.13194 9.30996,15.90452 l 57.02352,-3.87915 c 2.78125,-8.21909 9.6093,-12.96949 16.29244,-17.8441 -7.29931,-16.53008 9.12314,-9.67581 16.29243,-29.48155 l 13.57703,13.96495 v 8.14621 l 1.16375,6.59456 12.41328,1.55166 8.14622,12.41328 h 12.02537 l 6.98247,-9.69787 c 0,0 -2.32749,-9.69788 -3.87915,-10.86163 -1.55166,-1.16374 -2.71541,-3.87915 -2.71541,-3.87915 l 2.32749,-10.86162 c 0,0 2.71541,-3.10332 5.43082,-4.26707 2.7154,-1.16374 9.69787,-5.43081 9.69787,-5.43081 v -8.14622 l -1.16374,-3.87915 h -8.14622 c -1.55166,0 -4.26707,-1.55166 -4.26707,-1.55166 l -6.59455,3.87915 v 6.98247 l -4.26707,2.71541 c 0,0 -8.14622,0.38792 -8.14622,-1.16375 0,-1.55166 -2.7154,-6.98247 -2.7154,-6.98247 l 9.69788,-6.98247 5.04289,-2.32749 6.98247,-9.69788 v -2.7154 l -8.14621,2.7154 -6.59456,1.16375 -2.71541,4.26706 -6.98247,5.43082 -3.87915,1.16374 -2.71541,1.55166 -5.43081,-2.7154 -10.86162,-8.14622 c 0,0 16.29243,-3.87915 17.45618,-6.59456 1.16375,-2.71541 10.86162,-12.02537 10.86162,-13.57703 0,-1.55166 2.32749,-5.43081 3.87915,-8.14622 1.55167,-2.7154 1.55167,-1.55166 1.55167,-4.26706 0,-2.71541 -5.0429,-8.14622 -6.59456,-8.14622 -1.55166,0 -12.41329,-17.45618 -12.41329,-17.45618 l -6.98247,-8.14622 -9.30996,-4.26706 -2.71541,-2.71541 -3.87915,-13.57703 -28.70572,8.14622 -5.43081,-12.02537 -2.7154,-3.10332 6.59455,-24.05074 c 5.40361,-1.83783 10.63284,-0.53679 16.29244,-6.98247 3.62301,-6.33512 8.06973,-12.39568 10.86162,-19.00784 2.10209,-4.2345 4.0893,-8.50033 3.10332,-13.57703 -1.28954,-2.40986 -2.91055,-4.89076 -8.14622,-8.14622 l 13.18912,-29.869463 -5.0429,-29.869464 -46.1619,-38.015682 -39.56734,-8.146218 -48.8773,27.154059 -6.98248,20.559501 -5.04289,16.292435 -0.38792,29.869462 -5.43081,40.73109 0.38792,13.57703 c 7.08533,19.5042 16.35713,39.66434 20.17158,58.18727 6.3242,5.0706 20.25808,10.36012 25.50493,10.40311 7.4417,5.39709 14.21028,10.50571 19.10531,14.81137 z"
         style="fill:none;stroke:#000000;stroke-width:1px;stroke-linecap:butt;stroke-linejoin:miter;stroke-opacity:1" />
    </clipPath>
    <filter
       id="filter1573"
       inkscape:label="Drop Shadow"
       style="color-interpolation-filters:sRGB">
      <feFlood
         id="feFlood1563"
         result="flood"
         flood-color="rgb(0,0,0)"
         flood-opacity="0.498039" />
      <feComposite
         id="feComposite1565"
         result="composite1"
         operator="in"
         in2="SourceGraphic"
         in="flood" />
      <feGaussianBlur
         id="feGaussianBlur1567"
         result="blur"
         stdDeviation="133.533"
         in="composite1" />
      <feOffset
         id="feOffset1569"
         result="offset"
         dy="6"
         dx="6" />
      <feComposite
         id="feComposite1571"
         result="composite2"
         operator="over"
         in2="offset"
         in="SourceGraphic" />
    </filter>
  </defs>
  <sodipodi:namedview
     inkscape:current-layer="g1494"
     inkscape:window-maximized="0"
     inkscape:window-y="0"
     inkscape:window-x="1311"
     inkscape:cy="151.70105"
     inkscape:cx="285.35779"
     inkscape:zoom="1.2926192"
     showgrid="false"
     id="namedview1488"
     inkscape:window-height="1401"
     inkscape:window-width="1249"
     inkscape:pageshadow="2"
     inkscape:pageopacity="0"
     guidetolerance="10"
     gridtolerance="10"
     objecttolerance="10"
     borderopacity="1"
     bordercolor="#666666"
     pagecolor="#ffffff" />
  <g
     id="g1494"
     inkscape:label="Image"
     inkscape:groupmode="layer">
    <path
       id="path1725"
       d="M 87.5,188.00135 V 1.71e-5 h 14.53877 c 7.99632,0 14.53708,0.3384043 14.53502,0.7520095 -0.002,0.413595 -0.90447,2.2293132 -2.00535,4.0349294 -2.52284,4.137842 -2.51819,4.2018324 0.54567,7.506064 5.33175,5.750044 18.36608,1.896352 16.96315,-5.0152868 -0.25279,-1.2453939 -0.69381,-3.3923545 -0.98005,-4.7710281 L 130.57677,1.71e-5 h 11.54985 11.54985 l 0.18693,10.2774109 c 0.1028,5.652563 0.0846,12.307816 -0.0404,14.789437 -0.12502,2.48161 -0.22877,12.59573 -0.23055,22.475814 -0.002,9.880083 -0.27743,18.407435 -0.61255,18.949671 -0.33512,0.542237 -0.73016,6.671438 -0.87786,13.620435 -0.1477,6.949006 -0.50911,13.762556 -0.80314,15.14124 -1.4808,6.943385 -2.35454,13.603745 -1.92981,14.710585 0.51181,1.33376 -3.20533,12.04452 -4.88055,14.06305 -1.22924,1.48113 -0.15681,7.20544 1.75789,9.38311 1.50995,1.71733 1.47105,4.4736 -0.57232,40.55315 -0.65588,11.58087 -1.5811,22.56668 -2.05605,24.41291 -0.49181,1.91179 -0.44326,12.27058 0.11278,24.06417 1.15647,24.52862 1.14318,23.79689 0.6813,37.5022 -0.19979,5.9283 -0.0977,10.77873 0.22686,10.77873 0.32456,0 2.82916,-2.31183 5.56578,-5.13738 6.20127,-6.40281 15.59581,-12.64904 20.37231,-13.54511 3.45219,-0.64765 21.64202,-9.43237 23.61394,-11.40429 0.51436,-0.51435 1.77858,-5.79934 2.8094,-11.74439 1.03081,-5.94505 2.26487,-13.06521 2.74231,-15.82256 0.47745,-2.75735 0.79832,-10.76658 0.71307,-17.79827 -0.0853,-7.03168 0.21377,-12.78452 0.66454,-12.78409 0.45077,4.4e-4 0.52628,-0.92325 0.16783,-2.05267 -0.35846,-1.12939 -0.14135,-2.66844 0.48246,-3.42008 0.64973,-0.78288 0.74351,-1.6081 0.21956,-1.93191 -0.50306,-0.31089 -0.91206,-2.49428 -0.90893,-4.85196 0.005,-3.9297 0.0943,-4.07794 1.06854,-1.78 0.58458,1.37867 3.40739,7.69551 6.27289,14.03743 5.44909,12.05992 11.6855,30.79995 11.67862,35.09357 -0.006,4.00401 -1.95539,18.36327 -4.65646,34.3071 -1.73923,10.26635 -3.12104,15.60427 -4.54224,17.54679 -1.12342,1.53551 -2.1636,3.91985 -2.31152,5.29853 -0.14791,1.37867 -0.49452,2.73228 -0.77027,3.00802 -1.74016,1.74015 -5.02625,9.28174 -5.41698,12.43197 -0.25544,2.05944 -0.90425,4.27837 -1.44185,4.93097 -1.65733,2.01186 -5.25555,18.90798 -4.50307,21.14498 0.38859,1.15519 0.60233,3.02209 0.47497,4.14865 -0.12735,1.12654 0.2111,3.15697 0.7521,4.51203 0.9305,2.3306 0.98729,2.2741 1.05096,-1.04562 0.037,-1.93014 0.93885,-4.93868 2.00406,-6.68564 1.56923,-2.57357 1.67334,-3.2774 0.54866,-3.70897 -0.90622,-0.34775 -1.19455,-0.0283 -0.83057,0.92028 0.30666,0.79913 0.0581,1.45295 -0.5524,1.45295 -0.61046,0 -1.10993,-1.60585 -1.10993,-3.56854 0,-2.09613 0.40896,-3.31578 0.99118,-2.95595 0.58875,0.36387 0.72312,-0.086 0.33094,-1.10798 -0.38184,-0.99508 -0.25397,-1.46948 0.30328,-1.12508 0.57121,0.35302 0.80017,-0.80366 0.56235,-2.84081 -0.49738,-4.2603 0.5486,-8.74136 1.85234,-7.93562 0.53529,0.33084 0.97327,-0.0413 0.97327,-0.82694 0,-0.78566 1.51939,-4.53472 3.37643,-8.33123 1.85704,-3.79654 3.65867,-7.72098 4.00361,-8.721 0.34496,-1.00002 1.07641,-1.5406 1.62545,-1.20126 0.57631,0.35616 0.74586,-0.0408 0.40116,-0.93913 -0.32927,-0.85804 -0.0727,-1.55608 0.57199,-1.55608 0.64302,0 0.94667,-0.35996 0.67476,-0.79989 -0.27189,-0.43994 -0.0304,-1.45513 0.53675,-2.25601 0.83177,-1.17462 0.91812,-1.10684 0.44667,0.35062 -0.37173,1.14919 -0.18934,1.56257 0.50115,1.13581 0.59711,-0.36901 0.87549,-1.77027 0.61864,-3.11391 -0.64663,-3.38256 2.76639,-15.83459 5.32507,-19.42794 2.48337,-3.48756 6.20395,-5.86193 5.92304,-3.77993 -0.47449,3.51671 0.0528,4.05148 3.37969,3.42736 3.24447,-0.60866 3.38567,-0.48599 6.18697,5.37503 l 2.86674,5.9979 -2.92828,2.24071 c -5.38038,4.11705 -18.57406,17.29974 -20.60819,20.59098 -1.11331,1.8014 -1.86713,4.49074 -1.69023,6.03014 0.26414,2.29841 0.86379,2.83148 3.4699,3.08472 1.73283,0.16837 5.95636,-0.42092 9.38566,-1.30954 3.42929,-0.88861 6.48597,-1.36478 6.79259,-1.05813 0.30665,0.30664 0.0312,0.55753 -0.61224,0.55753 -0.64339,0 -1.16979,0.6016 -1.16979,1.33689 0,0.73531 0.6768,1.3369 1.50401,1.3369 0.82721,0 1.50401,-0.34403 1.50401,-0.76453 0,-2.0152 12.98308,-9.42787 20.33833,-11.61214 4.62368,-1.37309 5.3431,-1.35021 8.68674,0.27615 l 3.64556,1.77322 -5.68169,5.22335 c -3.12492,2.87284 -6.64058,5.52768 -7.81259,5.89967 -1.17199,0.37198 -2.13089,1.32272 -2.13089,2.11277 0,1.75148 1.19034,1.85036 2.80748,0.23323 0.93583,-0.93584 1.20321,-0.16913 1.20321,3.45019 0,2.55935 0.4512,4.93224 1.00267,5.27307 1.90958,1.18018 0.98807,4.1326 -2.25601,7.22789 -1.79228,1.71007 -4.16109,3.27833 -5.26404,3.48499 -1.68259,0.31529 -1.74436,0.47876 -0.38375,1.01562 1.03024,0.40652 2.80966,-0.4453 4.87957,-2.33587 1.7919,-1.63666 3.4936,-2.74012 3.78156,-2.45215 0.28797,0.28797 -0.0688,6.17147 -0.79286,13.07446 -1.65174,15.74793 -0.79221,20.14263 5.8723,30.02439 4.26433,6.32293 9.20334,16.39994 9.20334,18.77753 0,0.48019 -26.03415,0.86897 -58.18961,0.86897 h -58.18962 l 0.56322,-4.76271 c 2.8855,-24.40028 7.40422,-70.17647 7.39856,-74.94986 -0.004,-3.64029 -3.15203,-14.51954 -4.53242,-15.66518 -1.00794,-0.8365 -1.74012,-0.8048 -2.85895,0.12374 -2.1243,1.76301 -1.87221,2.91767 0.86413,3.95801 3.56968,1.3572 6.46663,14.09011 3.20574,14.09011 -0.79466,0 -1.66994,0.36422 -1.94505,0.80937 -0.61384,0.99321 -5.1112,41.00163 -6.61532,58.84972 -0.60416,7.16912 -1.31597,14.04997 -1.58178,15.29078 l -0.48331,2.25602 H 119.06512 87.5 Z M 232.21989,346.3152 c 6.01549,-9.67005 6.34242,-10.41947 4.54545,-10.41947 -3.22782,0 -6.4566,-7.93151 -3.87764,-9.5254 1.66831,-1.03107 1.1238,-3.51482 -0.75201,-3.43019 -1.22337,0.0552 -1.34083,0.24372 -0.38788,0.62271 0.92049,0.36606 1.01083,0.76354 0.27668,1.21728 -0.59958,0.37054 -2.22681,6.74557 -3.6161,14.16673 -1.38929,7.42114 -2.81599,14.621 -3.17044,15.99968 -0.92046,3.58018 0.4041,1.94271 6.98194,-8.63134 z m -35.90976,4.43725 c 0.17693,-1.82928 0.59285,-4.67958 0.92428,-6.33399 0.53584,-2.67494 0.49012,-2.75108 -0.41305,-0.6876 -0.55861,1.27625 -1.37306,2.09955 -1.80991,1.82956 -0.7169,-0.44308 -0.87258,2.59309 -0.39987,7.79855 0.25896,2.85176 1.32949,1.20896 1.69855,-2.60652 z m -2.43501,-11.93971 c 0.5937,-4.08597 1.31654,-8.89545 1.60626,-10.68773 0.29457,-1.82215 0.0928,-3.25869 -0.45801,-3.25869 -0.93563,0 -1.40521,2.70032 -2.87708,16.54411 -0.89217,8.39133 0.41815,6.42251 1.72883,-2.59769 z m 52.29801,-14.91514 c 2.80544,-1.39949 3.92344,-3.42651 1.34392,-2.43665 -0.85685,0.32881 -1.68069,-0.29969 -2.09216,-1.59608 -0.57323,-1.80612 -1.16943,-2.03069 -3.83627,-1.44495 -5.60482,1.23102 -6.69956,5.38228 -1.43154,5.42838 0.96508,0.008 1.75468,0.49318 1.75468,1.07719 0,0.58403 0.33841,0.90115 0.752,0.70473 0.41361,-0.19642 1.99282,-0.97609 3.50937,-1.73262 z m -2.25603,-7.05267 c 2.39387,-0.76666 2.36271,-0.80728 -0.69281,-0.90273 -1.75974,-0.055 -3.47839,0.35126 -3.81922,0.90273 -0.71262,1.15306 0.91162,1.15306 4.51203,0 z m 8.00604,-3.25869 c -0.008,-0.68935 -0.40324,-1.86552 -0.87733,-2.61373 -0.68232,-1.07683 -1.02446,-1.09749 -1.64149,-0.0992 -0.55912,0.90469 -1.61288,0.29717 -3.72732,-2.14896 -2.78663,-3.22375 -2.76898,-3.1498 0.3228,1.35247 3.11132,4.53072 5.95651,6.21639 5.92334,3.50936 z m -9.98149,-10.7229 c -0.57384,-1.07223 -1.56183,-2.26994 -2.19555,-2.6616 -0.77208,-0.47717 -0.88419,-0.2475 -0.33983,0.69616 2.15051,3.72793 4.42034,5.48751 2.53538,1.96544 z m -87.04129,-10.6912 c 2.54814,-1.63171 3.53997,-2.8856 3.1292,-3.95606 -0.48857,-1.27319 -1.16366,-0.99206 -3.59888,1.49876 -1.64863,1.68626 -3.50797,3.08027 -4.13188,3.0978 -0.6239,0.0176 -2.03677,0.7241 -3.13971,1.57013 -1.90941,1.46465 -1.86145,1.50571 1.00267,0.85824 1.65441,-0.37399 4.68678,-1.75498 6.7386,-3.06887 z m 65.35926,-25.96606 c 1.47868,-1.96904 2.18374,-2.26284 3.26895,-1.36219 1.10115,0.91387 1.25381,0.80997 0.74771,-0.50889 -0.46284,-1.20611 -0.21719,-1.49652 0.9024,-1.06689 1.97248,0.75692 1.64982,-2.33963 -0.38293,-3.67482 -1.20024,-0.78838 -1.1168,-1.18314 0.51286,-2.42651 1.07048,-0.81672 2.56353,-1.48494 3.31788,-1.48494 0.75434,0 1.12415,-0.40026 0.82181,-0.88948 -0.30234,-0.4892 0.009,-0.86933 0.69283,-0.84472 3.56998,0.12857 5.09437,-0.32978 4.17026,-1.25389 -1.32844,-1.32844 -8.02875,0.56906 -10.40684,2.94717 -1.56663,1.56662 -7.05963,11.41465 -7.05963,12.6567 0,1.19639 1.75096,0.12389 3.4147,-2.09154 z m 0.82554,-4.69552 c 0.49961,-1.49885 2.77847,-2.32409 2.77847,-1.00619 0,0.53842 -0.71449,1.25313 -1.58779,1.58825 -0.97651,0.37472 -1.43491,0.15064 -1.19068,-0.58206 z M 142.23435,116.56592 c -1.07836,-1.07837 -1.65085,0.43189 -0.89386,2.35808 0.7101,1.80691 0.76373,1.81003 1.11491,0.0652 0.20291,-1.00826 0.10344,-2.09866 -0.22105,-2.42314 z M 125.52979,77.277713 c 1.67124,-1.671246 1.78444,-2.41934 0.83445,-5.514715 -0.71275,-2.322348 -1.71549,-3.58117 -2.85266,-3.58117 -0.96446,0 -1.9864,-0.563997 -2.27097,-1.253339 -0.31346,-0.759304 -0.78772,-0.364081 -1.20317,1.002679 -0.37717,1.240805 -1.08434,2.256008 -1.57149,2.256008 -1.55669,0 -0.95316,1.93793 1.30761,4.198699 1.41166,1.411666 1.769,2.334799 1.00268,2.590241 -1.93695,0.645647 -1.3576,2.235132 0.81467,2.235132 1.10294,0 2.87544,-0.87009 3.93888,-1.933535 z M 326.81152,375.25068 c -0.88677,-1.49561 -1.97629,-11.91117 -1.84085,-17.59839 0.0762,-3.19933 -0.19439,-5.65967 -0.60126,-5.46743 -4.90061,2.31567 -7.1106,3.69036 -9.67851,6.02036 -3.30888,3.00234 -5.00772,3.31413 -9.25628,1.69882 -3.20037,-1.21678 -7.37312,0.40188 -7.37312,2.86013 0,1.14904 -0.87477,1.32285 -4.07902,0.81046 -6.17749,-0.98782 -6.15423,-0.97978 -8.51992,-2.94354 -2.89604,-2.40402 -2.20685,-6.08186 0.9418,-5.02585 2.8043,0.94048 19.67851,1.18478 19.67851,0.28489 0,-0.38392 -0.60245,-1.19806 -1.33877,-1.80915 -0.73633,-0.6111 -1.93656,-2.92236 -2.66717,-5.13615 -1.30281,-3.94752 -3.35298,-5.25263 -4.35406,-2.77169 -0.27815,0.68934 -0.52635,0.80213 -0.55153,0.25067 -0.0252,-0.55148 0.79783,-2.01383 1.82894,-3.24967 1.75264,-2.10065 2.06068,-2.15003 4.72935,-0.7582 1.57003,0.81885 3.30579,1.49412 3.85727,1.50061 2.96745,0.0348 8.52273,2.28346 8.52273,3.44978 0,1.89111 2.98655,2.83018 4.63911,1.45869 0.75731,-0.62852 1.3797,-2.1027 1.3831,-3.27599 0.003,-1.17328 0.65345,-3.37405 1.44456,-4.8906 0.79109,-1.51654 1.01392,-2.75735 0.49515,-2.75735 -0.51877,0 -0.94321,-0.85083 -0.94321,-1.89074 0,-1.0399 -0.67402,-3.18311 -1.49784,-4.76269 -0.8238,-1.57959 -1.50061,-3.58916 -1.50401,-4.4657 -0.009,-2.30917 4.61885,-4.19936 7.06985,-2.88765 2.17173,1.16229 2.33678,2.63396 0.9524,8.49207 -1.13988,4.82352 -0.42147,7.89364 1.66019,7.09483 0.81735,-0.31364 2.29174,-0.13906 3.27647,0.38792 1.42151,0.76077 2.01929,0.45586 2.90129,-1.47993 0.63823,-1.40078 2.29857,-2.69885 3.90233,-3.05088 1.53531,-0.33701 3.46826,-0.87229 4.29547,-1.18952 0.82721,-0.31722 1.78251,-0.52511 2.12292,-0.46196 0.3404,0.0631 1.59624,-0.9255 2.79076,-2.19701 1.92674,-2.05091 1.99833,-2.45582 0.63442,-3.58775 -2.27064,-1.88446 -1.93693,-3.29054 2.30987,-9.73289 2.11601,-3.20996 4.2869,-6.64329 4.8242,-7.62962 0.89748,-1.64754 1.22828,-1.55315 4.06814,1.16079 4.08232,3.90128 7.8423,6.31473 9.48923,6.09092 2.25316,-0.30617 4.27471,0.0445 5.79248,1.00469 1.19726,0.75748 1.0279,1.2598 -0.97017,2.87775 -2.0777,1.68243 -2.23028,2.18942 -1.07701,3.57902 0.73896,0.89042 2.00275,1.61894 2.80838,1.61894 2.61408,0 0.71763,2.49163 -2.29438,3.01447 -3.69813,0.64193 -4.68445,4.4441 -1.37721,5.30898 3.00774,0.78654 4.96977,-0.17284 6.02393,-2.9455 0.49559,-1.30346 1.58904,-2.36993 2.42989,-2.36993 1.82615,0 2.00799,-2.12779 0.32562,-3.81016 -0.93583,-0.93583 -0.82442,-1.20321 0.50134,-1.20321 0.9375,0 1.70455,0.45121 1.70455,1.00267 0,0.55148 0.56399,1.00266 1.25334,1.00264 0.68934,-3e-5 2.66402,1.68018 4.38817,3.7338 l 3.13485,3.73383 2.6132,-2.48046 c 1.53776,-1.45963 2.62035,-3.59086 2.63054,-5.17862 0.0102,-1.484 0.47536,-2.98128 1.03519,-3.32726 0.55983,-0.34599 1.66481,-2.17743 2.45552,-4.06987 0.79071,-1.89243 2.13748,-3.44079 2.99282,-3.44079 2.1959,0 1.93238,-3.35854 -0.43135,-5.49768 -1.65171,-1.49477 -2.25039,-1.57883 -3.55185,-0.4987 -1.18564,0.98398 -1.84687,1.01754 -2.72604,0.13838 -0.63838,-0.6384 -2.35414,-1.16072 -3.81279,-1.16072 -1.45866,0 -3.45833,-0.89089 -4.44374,-1.97975 -0.98542,-1.08887 -2.52174,-2.21619 -3.41408,-2.50517 -0.89235,-0.289 -2.72369,-2.21812 -4.06967,-4.28697 -1.34596,-2.06884 -3.8146,-5.23961 -5.48587,-7.04617 l -3.03865,-3.28464 4.23252,-3.86891 c 4.71498,-4.30992 5.33629,-7.22448 2.03323,-9.53802 l -2.19931,-1.54045 2.37409,-2.5271 c 2.74888,-2.92605 4.92792,-3.1512 9.18621,-0.94915 4.04103,2.08969 4.35736,1.48064 1.34886,-2.59712 l -2.49533,-3.38225 2.32446,-2.56199 c 3.60102,-3.96896 5.70084,-7.78528 5.66588,-10.29743 -0.0359,-2.58086 -2.13693,-5.80066 -3.78509,-5.80066 -0.59906,0 -2.68871,-2.36881 -4.64366,-5.26403 -5.81402,-8.61037 -7.53395,-10.55652 -7.55986,-8.5542 -0.0138,1.0721 -0.56015,1.51681 -1.44578,1.17697 -1.19559,-0.45879 -1.21657,-1.03838 -0.13106,-3.62007 2.53688,-6.03343 -0.91384,-9.39651 -8.41122,-8.19762 -3.96668,0.63429 -9.10154,-1.62007 -9.06969,-3.98189 0.008,-0.62628 0.49368,-0.46169 1.07901,0.36598 0.94547,1.3369 1.0134,1.3369 0.61133,0 -0.24878,-0.82721 -1.07275,-1.3712 -1.83102,-1.20889 -0.75827,0.16231 -0.0251,-0.8382 1.62934,-2.22335 1.65441,-1.38517 3.60972,-2.30726 4.34515,-2.04912 0.76606,0.2689 1.14075,-0.0663 0.87733,-0.78467 -0.25288,-0.68971 -0.9867,-1.13478 -1.63072,-0.98906 -0.84275,0.19073 -0.88777,-0.26412 -0.16061,-1.62282 0.55566,-1.03831 0.71117,-2.18699 0.34554,-2.55263 -1.52602,-1.52602 -1.64031,-32.99396 -0.1606,-44.21785 1.75496,-13.31184 2.92291,-30.0927 2.4076,-34.59225 -0.41387,-3.61376 -1.64925,-26.41735 -1.79256,-33.088235 -0.0178,-0.827211 0.66412,-5.56484 1.5153,-10.528071 0.89107,-5.195732 1.43379,-13.277768 1.27932,-19.050804 -0.14755,-5.514704 0.36,-14.087572 1.12789,-19.050804 0.76789,-4.963232 1.54487,-11.505683 1.72659,-14.538768 0.36337,-6.064377 0.84441,-7.80221 3.62369,-13.091128 2.61446,-4.975257 3.32927,-9.7469551 2.20709,-14.7330665 L 377.48588,1.71e-5 h 29.97364 29.97363 v 2.6492564 c 0,1.4570793 -0.87546,5.6307105 -1.94548,9.2747315 -1.07001,3.64401 -2.17982,9.107096 -2.46625,12.140181 -0.72537,7.681137 -1.19512,10.558814 -1.9133,11.720878 -0.34033,0.550639 -0.84442,4.568356 -1.12023,8.928241 -0.62871,9.938243 -1.48845,16.813606 -2.74657,21.964514 -3.21309,13.154631 -4.83522,24.379023 -4.85438,33.589571 -0.0101,4.68749 -0.61151,10.77874 -1.33729,13.53611 -0.74955,2.84762 -1.13084,7.87829 -0.88264,11.64526 0.27848,4.22662 -0.0227,7.49097 -0.83066,9.00048 -0.69719,1.30272 -1.61856,3.7328 -2.04747,5.40018 -3.88582,15.10554 -3.98955,15.97355 -3.23168,27.04542 1.08293,15.82073 0.62206,28.13131 -1.18387,31.62359 -0.83034,1.60568 -1.5097,3.66383 -1.5097,4.57365 0,0.90983 -1.2233,4.31932 -2.71844,7.57664 -2.52474,5.50041 -2.80024,5.76958 -3.86633,3.77753 -1.1126,-2.07887 -1.18172,-2.04783 -2.24739,1.00912 -0.60472,1.73469 -1.79769,3.4219 -2.65104,3.74936 -1.02638,0.39386 -1.55156,1.89453 -1.55156,4.43354 0,2.11097 -0.46788,5.06873 -1.03971,6.5728 -1.38913,3.65369 -0.16675,12.38043 1.44982,10.35052 1.10031,-1.38164 5.05199,-3.93056 6.09367,-3.93056 0.28321,0 0.51772,0.7896 0.52113,1.75467 0.003,0.96508 0.75894,3.1083 1.67899,4.76271 1.33369,2.39819 1.72027,6.26043 1.90679,19.0508 0.12868,8.82353 0.43493,17.24576 0.68057,18.71606 0.49248,2.94786 6.64968,11.83378 10.12319,14.60959 1.21677,0.97236 2.2799,2.74596 2.36248,3.94131 0.0826,1.19538 1.74538,5.62601 3.69507,9.84588 1.9497,4.21988 4.95639,13.16832 6.68152,19.88543 2.81929,10.97749 3.13969,13.73443 3.16727,27.25306 0.0169,8.27207 0.26552,13.6865 0.55258,12.0321 l 0.52191,-3.00803 0.7559,2.50669 c 0.60385,2.0025 0.77599,1.56556 0.85583,-2.17247 0.055,-2.57352 0.61518,-4.85089 1.24487,-5.06079 0.76125,-0.25375 1.26657,-5.07013 1.50788,-14.37164 0.19962,-7.69452 0.79227,-16.92285 1.31703,-20.50741 0.52476,-3.58456 1.00601,-10.12699 1.06944,-14.53877 0.0634,-4.41176 0.55013,-14.70417 1.08154,-22.87204 0.53142,-8.16786 1.16228,-19.22234 1.40194,-24.56551 0.57096,-12.73018 1.53641,-21.50446 2.5032,-22.74961 0.42818,-0.55147 1.53373,-7.54512 2.45678,-15.54145 2.37391,-20.56499 2.37514,-20.57737 4.07034,-41.10962 2.23891,-27.1176 2.47197,-29.64488 3.69863,-40.10695 0.61428,-5.23897 1.10438,-10.65342 1.08916,-12.03208 -0.0153,-1.37868 -0.11811,-10.17715 -0.22859,-19.55214 -0.17809,-15.11307 1.52793,-47.437348 2.5622,-48.546125 0.21433,-0.229784 0.3897,69.819515 0.3897,155.665105 v 156.08289 h -67.62131 c -37.19172,0 -67.82195,-0.33841 -68.06717,-0.75201 z m 65.41188,-31.50067 c -1.14469,-2.13888 -2.91859,-2.44358 -2.91859,-0.50134 0,1.7195 0.65001,2.33958 2.45254,2.33958 1.0952,0 1.20919,-0.44965 0.46605,-1.83824 z m -124.01413,16.94084 c -1.47546,-1.84542 -2.49272,-5.74431 -1.49876,-5.74431 0.47833,0 1.41114,0.54144 2.07291,1.2032 0.66177,0.66177 1.20321,0.83212 1.20321,0.37858 0,-0.45357 0.6768,-0.26296 1.50402,0.42357 2.00258,1.66198 1.89583,2.72775 -0.39606,3.95434 -1.35548,0.72543 -2.18245,0.6637 -2.88532,-0.21538 z m 22.83352,-15.77106 c 0,-0.55146 0.67679,-1.00266 1.50401,-1.00266 0.82719,0 1.504,0.4512 1.504,1.00266 0,0.55148 -0.67681,1.00268 -1.504,1.00268 -0.82722,0 -1.50401,-0.4512 -1.50401,-1.00268 z m 79.40603,-33.45094 c -1.07226,-1.1792 -2.50217,-3.21362 -3.17757,-4.521 -1.01253,-1.9599 -0.99053,-2.23269 0.12536,-1.55454 1.20908,0.73475 -0.34501,-1.58581 -6.43217,-9.60453 -3.22206,-4.24446 -8.22647,-9.37661 -12.34585,-12.66098 -2.16303,-1.72458 -6.41439,-5.1172 -9.44746,-7.53916 -8.50372,-6.79034 -19.1329,-14.1429 -19.66964,-13.60616 -0.51042,0.51042 14.63126,14.67879 20.79546,19.45875 3.79064,2.9394 5.21827,7.67087 2.00752,6.65335 -1.37753,-0.43657 -1.40209,-0.35564 -0.15896,0.52355 1.02447,0.72453 1.87507,0.70404 2.80482,-0.0676 1.08919,-0.90396 1.09537,-1.25913 0.0335,-1.93266 -0.71544,-0.45382 -0.84959,-0.82417 -0.29812,-0.82294 1.41403,0.003 11.53074,9.56507 11.53074,10.89845 0,0.6054 -0.65937,1.10072 -1.46527,1.10072 -0.80587,0 -3.21693,1.76928 -5.35787,3.93172 -4.05851,4.09927 -9.85979,7.09769 -13.73247,7.09769 -2.33531,0 -3.07484,-1.26258 -5.5793,-9.52539 -1.32876,-4.38397 -3.78261,-8.3877 -7.98883,-13.03476 -2.42797,-2.68247 -2.79063,-4.03898 -3.3506,-12.53343 -0.87612,-13.28963 -1.44654,-16.85725 -3.32981,-20.82595 -1.52773,-3.21945 -1.90148,-3.42269 -5.42549,-2.95001 -3.25064,0.436 -4.3601,0.0152 -7.8622,-2.98254 -2.24262,-1.91959 -3.82523,-3.89831 -3.51694,-4.39713 0.3083,-0.49884 -0.0942,-0.65577 -0.89413,-0.34875 -0.80007,0.307 -1.75254,0.0762 -2.11661,-0.51283 -0.36406,-0.58906 -0.12885,-1.07103 0.52271,-1.07103 0.90847,0 0.9072,-0.33426 -0.005,-1.43398 -0.65455,-0.7887 -2.05392,-1.26764 -3.10972,-1.06431 -1.05577,0.20331 -2.22702,-0.16658 -2.60277,-0.82204 -0.37574,-0.65543 -0.32482,-0.86808 0.11319,-0.47254 0.438,0.39554 1.93358,-0.17537 3.32351,-1.26869 2.3801,-1.87218 2.63624,-1.88916 4.40147,-0.29165 1.46428,1.32516 1.59493,1.89756 0.59725,2.61663 -0.92292,0.6652 -0.8113,0.77188 0.40255,0.38478 1.14371,-0.36475 5.49496,2.88401 13.63835,10.18281 25.61115,22.95487 44.39461,40.5264 47.91823,44.82653 2.02577,2.47218 4.10668,4.49487 4.62428,4.49487 0.51758,0 0.6622,-0.4512 0.32138,-1.00267 -1.00869,-1.63208 0.14211,-1.14282 1.63191,0.69381 0.93504,1.15273 0.9744,1.45514 0.12276,0.94349 -0.68934,-0.41414 -1.25334,-0.30177 -1.25334,0.2497 0,1.26981 1.94872,2.49158 4.24374,2.66066 2.40749,0.17736 2.27455,-0.22481 -1.48639,-4.49641 -1.79228,-2.03564 -5.06305,-5.82063 -7.26836,-8.4111 -2.20533,-2.59048 -6.90744,-7.07089 -10.44913,-9.95647 -3.54212,-2.88559 -7.16969,-5.92333 -8.06169,-6.75054 -1.67263,-1.55111 -5.47139,-4.79209 -13.15872,-11.22651 -15.92268,-13.32756 -27.45561,-23.78798 -27.25103,-24.71679 0.13126,-0.59589 -0.36047,-0.85356 -1.0927,-0.57257 -0.73224,0.28098 -1.91008,-0.18646 -2.61744,-1.03876 -1.08934,-1.31258 -0.96958,-1.54963 0.78286,-1.54963 2.75292,0 3.66765,-1.69465 2.05329,-3.80395 -0.72013,-0.94092 -0.0997,-0.63329 1.37892,0.68361 2.18973,1.95036 2.49542,2.75468 1.64845,4.33726 -0.91472,1.70916 -0.81159,1.82076 0.85729,0.92758 1.6318,-0.8733 4.48186,1.46469 20.38004,16.71833 19.28527,18.50339 27.38483,26.56882 45.19524,45.00479 l 10.66953,11.04425 -2.64813,2.47968 c -3.81786,3.57498 -6.62948,4.03162 -8.97071,1.45696 z m -20.24829,-18.36961 c 0,-1.51059 -2.30779,-4.32918 -3.54463,-4.32918 -1.41673,0 -2.11652,4.03136 -0.90935,5.23854 0.60881,0.6088 4.45398,-0.17627 4.45398,-0.90936 z m -12.03579,-8.84516 c -1.29316,-1.3765 -3.23801,-2.50273 -4.32189,-2.50273 -2.25007,0 -4.61948,-2.67277 -4.66659,-5.26404 -0.0367,-2.02117 -1.62716,-2.35677 -2.37585,-0.50133 -0.2934,0.72711 -0.53897,0.49179 -0.58489,-0.56053 -0.10424,-2.38843 -2.0845,-1.13381 -2.0845,1.32068 0,2.3224 5.64505,6.62755 8.90039,6.78776 1.31066,0.0645 3.27364,1.07328 4.36218,2.2417 1.08855,1.16842 2.23638,1.86717 2.55075,1.5528 0.31437,-0.31437 -0.48645,-1.69781 -1.7796,-3.07431 z m -121.65405,6.85555 c -1.53603,-1.53603 -0.43476,-4.16613 3.25174,-7.7659 2.3338,-2.27888 4.40114,-3.53071 5.1087,-3.0934 0.65367,0.40397 2.3864,-0.14978 3.85053,-1.23059 3.05632,-2.25618 10.0394,-4.82221 12.03738,-4.42333 0.74469,0.14869 1.05645,-0.21104 0.69284,-0.79939 -0.36434,-0.58951 0.0672,-1.06973 0.96121,-1.06973 0.97101,0 1.33513,0.46476 0.90693,1.15759 -0.44683,0.72297 -0.27465,0.88519 0.45852,0.43206 0.64566,-0.39906 0.86696,-1.22225 0.49178,-1.82933 -0.43799,-0.70867 -0.0892,-0.87625 0.97428,-0.46813 0.99943,0.38351 1.56181,0.17089 1.41782,-0.53605 -0.13125,-0.64442 0.21257,-1.1991 0.76406,-1.23261 0.55145,-0.0334 1.5355,-0.39978 2.18672,-0.81393 0.65123,-0.41416 1.46496,-0.29851 1.80828,0.25701 0.83716,1.35456 -2.60435,5.96629 -4.49635,6.02524 -1.07549,0.0334 -1.16199,0.2643 -0.3036,0.80999 0.66024,0.41972 0.88584,1.23013 0.50135,1.80093 -0.83449,1.23882 -5.29913,1.36687 -4.53475,0.13006 0.29103,-0.4709 1.27311,-0.57309 2.18241,-0.22708 1.24357,0.47321 1.36935,0.3429 0.50755,-0.52587 -0.8644,-0.8714 -1.70382,-0.85627 -3.41901,0.0616 -1.98683,1.0633 -2.06882,1.33108 -0.65064,2.12476 0.89251,0.49946 1.36757,1.57297 1.05574,2.3856 -0.35964,0.93717 0.0439,1.47748 1.10349,1.47748 0.91875,0 1.46153,-0.3384 1.20617,-0.752 -0.25537,-0.4136 0.73321,-0.82393 2.19684,-0.91184 l 2.66115,-0.15983 -3.00803,1.5892 c -1.65442,0.87406 -3.91044,1.6774 -5.01338,1.78516 -1.10293,0.10778 -1.88942,0.71475 -1.74773,1.34882 0.17178,0.76868 -0.62988,0.93014 -2.40556,0.48447 -2.04108,-0.51228 -2.47452,-0.36314 -1.8555,0.63843 0.59923,0.96959 0.24968,1.16094 -1.35447,0.74144 -1.18917,-0.31096 -2.16214,-0.15643 -2.16214,0.34341 0,0.49985 -0.78961,0.9019 -1.75468,0.89346 -1.51485,-0.0132 -1.5491,-0.16139 -0.25066,-1.08378 1.1798,-0.83811 0.96186,-0.95186 -1.01101,-0.5277 -4.01804,0.86387 -5.37766,-0.6031 -2.96207,-3.19593 1.12522,-1.20778 2.70508,-2.19597 3.5108,-2.19597 0.80573,0 1.46495,-0.45119 1.46495,-1.00266 0,-1.76494 -2.60939,-1.0772 -5.57212,1.4686 -2.09404,1.79935 -3.08645,2.14013 -3.64997,1.25334 -0.47683,-0.75039 -0.77984,-0.20228 -0.78929,1.42783 -0.0131,2.25775 0.53607,2.75741 3.74467,3.4071 3.54657,0.7181 3.61771,0.80415 1.25334,1.51565 -3.25302,0.97892 -8.50477,1.13928 -9.35829,0.28576 z m 6.35027,-0.72176 c 0,-0.21314 -1.32978,-0.5827 -2.95507,-0.82124 -1.62529,-0.23854 -2.72666,-0.0642 -2.4475,0.38754 0.49683,0.8039 5.40257,1.19772 5.40257,0.4337 z m 15.92959,-13.21853 c 0.53752,0.33222 1.20282,0.23912 1.47846,-0.20686 0.99394,-1.60823 -3.26868,-1.05181 -4.55708,0.59485 -1.17756,1.50502 -1.13537,1.54257 0.39054,0.34768 0.94091,-0.73682 2.15054,-1.06786 2.68808,-0.73567 z m 11.89461,2.88816 c -2.17377,-0.56806 -2.21126,-3.17151 -0.0839,-5.8262 1.39148,-1.73642 1.52252,-1.76124 0.97708,-0.1851 -0.52193,1.50819 -0.25268,1.70051 1.57062,1.1218 2.14849,-0.6819 2.16081,-0.63779 0.52099,1.86489 -1.24881,1.90594 -1.36477,2.69078 -0.45218,3.06038 1.51082,0.61187 -0.1438,0.58851 -2.53263,-0.0358 z m 12.95034,-9.65606 c -4.63185,-2.03154 -4.97903,-2.05023 -7.81775,-0.42102 -1.63387,0.9377 -2.69726,1.26255 -2.3631,0.72187 0.33415,-0.54066 0.20493,-0.98303 -0.28719,-0.98303 -0.4921,0 -0.89475,-0.67199 -0.89475,-1.49331 0,-1.03546 0.74944,-1.35743 2.44431,-1.05008 1.49335,0.27079 3.5683,-0.38778 5.33338,-1.69277 l 2.88908,-2.13599 4.97768,2.33143 c 4.77442,2.23622 5.0848,2.26122 7.6013,0.61234 l 2.62365,-1.71908 -1.71996,2.62498 c -1.4205,2.16798 -6.52923,5.79973 -7.63908,5.43054 -0.16524,-0.055 -2.48165,-1.05661 -5.14757,-2.22588 z m -22.57421,-0.22594 c 0.91091,-0.93041 2.2029,-1.50944 2.87108,-1.28671 0.66817,0.22273 -0.0771,0.98399 -1.65622,1.69168 -2.68763,1.20452 -2.76526,1.17865 -1.21486,-0.40497 z m 54.49352,-2.25295 c -1.65441,-0.94195 -3.05313,-2.27665 -3.10829,-2.96599 -0.0552,-0.68934 -0.16794,-1.69405 -0.25067,-2.2327 -0.0827,-0.53864 -2.51922,-2.79838 -5.41444,-5.02162 -7.56722,-5.81087 -7.77071,-5.99932 -7.77071,-7.19608 0,-0.67526 0.60918,-0.58032 1.61093,0.25105 1.72192,1.42907 4.95855,3.40787 7.41312,4.53223 0.82722,0.37892 2.97043,1.77319 4.76272,3.09837 1.79227,1.32519 3.25868,2.12864 3.25868,1.78546 0,-2.09537 2.82234,2.72717 3.40089,5.81112 0.78488,4.18372 0.38797,4.38084 -3.90223,1.93816 z m -35.58752,-4.72612 c 1.87276,-1.38169 4.67278,-3.07331 6.22225,-3.75918 1.55256,-0.68723 2.60119,-1.81004 2.33596,-2.50122 -0.26471,-0.68982 0.031,-1.25419 0.65703,-1.25419 0.62608,0 0.859,-0.27933 0.51762,-0.62071 -0.34139,-0.34139 0.0389,-1.28017 0.84478,-2.08619 0.80601,-0.80601 1.16601,-1.95002 0.8,-2.54224 -0.43855,-0.70959 -0.18526,-0.77604 0.74279,-0.19486 0.77455,0.48505 2.19787,0.75201 3.16295,0.59323 0.96506,-0.15876 1.75468,0.0522 1.75468,0.46856 0,1.50386 -11.20835,11.40091 -12.91146,11.40091 -0.95996,0 -2.62122,0.66247 -3.69169,1.47213 -1.07046,0.80965 -2.37239,1.48647 -2.89313,1.50401 -0.52074,0.0176 0.58546,-1.09858 2.45822,-2.48025 z m 83.25204,0.31531 c 0.0206,-0.7219 3.29187,-3.46378 7.26938,-6.09308 3.97754,-2.62931 5.87827,-3.5912 4.22386,-2.13751 -1.65442,1.45365 -4.36164,3.84897 -6.01604,5.32289 -4.22936,3.76797 -5.52139,4.45387 -5.4772,2.9077 z m -5.74304,-5.07256 c -1.13106,-1.24081 -4.92134,-4.73764 -8.42282,-7.77071 -12.44288,-10.77839 -19.93334,-18.28691 -19.28671,-19.33319 0.40307,-0.65219 0.0409,-0.82513 -0.9398,-0.4488 -1.07297,0.41175 -2.98479,-0.8948 -5.83697,-3.98906 -4.02622,-4.36793 -4.14581,-4.67121 -2.35769,-5.97871 1.03604,-0.75757 2.46063,-1.15598 3.16581,-0.8854 0.70516,0.2706 1.2821,-0.0733 1.2821,-0.76436 0,-1.28495 4.98763,-4.69674 6.86608,-4.69674 0.57305,0 1.82153,1.31975 2.77437,2.93276 1.66922,2.82577 5.98682,4.05431 4.97417,1.41536 -0.26117,-0.68059 0.35893,-1.50209 1.37802,-1.82552 3.03256,-0.96252 7.06886,-5.62985 7.06886,-8.17404 0,-3.09456 -1.36639,-2.99027 -8.35966,0.63807 -8.00414,4.1528 -9.56961,3.72649 -2.04422,-0.55671 l 6.14022,-3.49479 -3.00764,-8.75299 c -1.65421,-4.81416 -3.40831,-9.00908 -3.89801,-9.32204 -0.84375,-0.53924 2.72993,-16.33637 5.03162,-22.24179 0.9086,-2.33122 1.65961,-2.75736 4.85953,-2.75738 l 3.78484,-4e-5 -0.0585,18.33403 c -0.032,10.08372 -0.39711,18.8822 -0.81118,19.55218 -1.04564,1.69188 -0.3604,1.57978 9.02334,-1.47615 7.04768,-2.29518 8.66841,-2.51425 10.94083,-1.47887 2.05301,0.93542 2.54301,1.72943 2.12679,3.44631 -0.29745,1.22697 -0.84364,3.47167 -1.21377,4.98821 -0.39497,1.61841 -0.25878,2.75735 0.32974,2.75735 0.55146,0 1.34938,-1.24081 1.77315,-2.75735 0.59456,-2.12785 0.86719,-2.34576 1.19417,-0.9545 0.23303,0.99154 -0.12002,2.45797 -0.78456,3.25868 -1.15379,1.39026 -0.39854,1.77822 2.67286,1.37306 1.49003,-0.19655 4.11984,5.53776 3.87259,8.44427 -0.39471,4.64041 -0.40488,4.67327 -1.4465,4.67327 -1.21218,0 -6.06162,-4.80337 -6.06162,-6.00405 0,-1.52101 -4.03559,-0.2224 -7.87846,2.53522 -2.00877,1.44146 -0.94881,0.13828 2.3554,-2.89599 3.30425,-3.03426 5.6978,-5.82674 5.31901,-6.20555 -0.86825,-0.86822 -8.91579,5.67738 -13.35193,10.86002 -2.8835,3.3687 -3.22123,4.29068 -2.38118,6.50019 1.47406,3.87704 0.40443,5.58959 -3.05858,4.89699 -1.77988,-0.35599 -3.07112,-0.1373 -3.30338,0.55947 -0.21528,0.64584 -1.14678,0.85015 -2.1394,0.46925 -1.00918,-0.38726 -1.45147,-1.17078 -1.03829,-1.83932 0.45111,-0.72992 0.28158,-0.89384 -0.45413,-0.43914 -0.64569,0.39905 -0.92838,1.12293 -0.62819,1.60863 0.30018,0.4857 -0.34518,1.3599 -1.43412,1.9427 -1.54971,0.82937 -2.17983,0.70234 -2.90009,-0.58467 -1.07482,-1.92063 -6.73329,-4.52578 -7.7096,-3.54948 -0.36764,0.36764 -1.08206,0.66846 -1.58757,0.66846 -0.50551,0 -1.03192,0.2675 -1.16979,0.59445 -0.37725,0.89466 10.38619,10.43267 11.79267,10.45007 0.67154,0.008 1.9723,0.63866 2.89058,1.40076 1.22949,1.02041 2.25643,1.11827 3.89591,0.37127 1.22448,-0.5579 2.45193,-0.9992 2.72766,-0.98066 0.27574,0.0186 1.47145,-0.48546 2.65713,-1.12002 1.72908,-0.92538 2.26746,-0.86271 2.72001,0.31661 0.4939,1.28709 -2.44887,3.86087 -4.54158,3.97209 -0.36764,0.0195 -1.00685,0.37395 -1.42044,0.78754 -0.41361,0.41361 -1.69202,0.75891 -2.84093,0.76736 -1.42206,0.0104 -1.68782,0.27001 -0.83251,0.81306 1.31111,0.83247 9.90058,0.68413 16.79175,-0.28994 2.85553,-0.40365 3.5775,-0.27846 2.50668,0.43461 -1.00849,0.67158 -1.09108,1.00662 -0.25067,1.01692 0.71079,0.009 1.22584,1.20896 1.18978,2.7727 -0.061,2.65045 -0.0986,2.66989 -0.97036,0.50134 -1.18471,-2.94744 -2.35678,-2.91458 -1.61391,0.0453 0.40519,1.61438 -0.17303,3.11075 -1.93724,5.01337 -3.05104,3.29041 -3.5185,3.32517 -6.13382,0.45608 z m -39.2869,-1.44581 c 0.75686,-0.93307 0.86089,-1.38779 0.23115,-1.01048 -0.73224,0.43872 -1.61752,-0.91443 -2.45592,-3.75386 -0.72101,-2.44192 -1.58092,-4.27299 -1.91091,-4.06904 -0.33,0.20394 -1.229,-0.018 -1.99777,-0.49307 -0.89072,-0.55049 0.0988,-0.76858 2.72788,-0.60116 2.26913,0.14448 5.28849,1.02462 6.70969,1.95582 2.63484,1.7264 3.43747,3.65224 1.52218,3.65224 -0.58403,0 -0.76164,0.48576 -0.3947,1.07946 0.73526,1.18968 -2.78679,4.93656 -4.64034,4.93656 -0.8058,0 -0.74115,-0.52545 0.20874,-1.69647 z m -43.74421,-5.52847 c 2.20589,-1.81672 5.53083,-4.85861 7.38876,-6.75978 3.22678,-3.30184 3.44007,-3.37185 4.76269,-1.56302 1.80688,2.47102 1.75933,2.7993 -0.6207,4.28566 -1.18869,0.74234 -2.00535,0.84056 -2.00535,0.24117 0,-1.845 -2.03065,-1.05392 -7.81353,3.04397 -4.05794,2.87554 -4.5559,3.0943 -1.71187,0.752 z m 37.71507,-8.83384 c -1.86702,-1.64562 -2.96663,-2.99202 -2.44361,-2.99202 0.52302,0 2.24779,1.35363 3.83282,3.00803 3.68558,3.84691 2.98429,3.83884 -1.38921,-0.0161 z m -60.48523,1.19887 c -0.94269,-0.37484 -2.86031,-2.2356 -4.26136,-4.13502 -2.18043,-2.95603 -2.54735,-4.50863 -2.54735,-10.77873 0,-4.21505 0.42572,-7.32527 1.00267,-7.32527 0.55147,0 1.00708,2.36884 1.01248,5.26405 0.0109,5.8897 3.60949,14.88615 6.6648,16.66218 2.03737,1.1843 0.82869,1.38636 -1.87124,0.31279 z m 39.31428,-2.1241 c 0,-0.45021 0.69592,-1.39614 1.54651,-2.10205 1.17137,-0.97216 1.82805,-1.00193 2.70722,-0.12277 1.70883,1.70883 3.22096,1.41427 1.76232,-0.3433 -1.0223,-1.2318 -0.95379,-1.50401 0.37857,-1.50401 1.69412,0 2.13002,1.77992 0.85941,3.50936 -0.89557,1.21898 -7.25403,1.71228 -7.25403,0.56277 z m 72.72948,-4.01447 c -0.2748,-0.44466 1.74796,-1.74254 4.49505,-2.88419 5.21344,-2.1666 6.09878,-3.47469 3.38115,-4.99554 -1.33869,-0.74916 -0.96323,-1.30495 2.20387,-3.26233 3.20389,-1.98012 5.31654,-2.3913 13.14435,-2.55835 8.09008,-0.17262 9.32482,0.0206 9.3115,1.45783 -0.008,0.91127 -0.45273,2.33366 -0.98732,3.16086 -0.78597,1.2162 -0.9749,1.0723 -0.98733,-0.752 -0.0133,-1.95535 -0.54199,-2.25603 -3.96687,-2.25603 -2.17332,0 -4.20419,0.40885 -4.51303,0.90855 -0.30883,0.49971 -1.57626,0.66892 -2.81652,0.37602 -2.12522,-0.50185 -2.14907,-0.45031 -0.41446,0.89549 1.70021,1.3191 1.33863,1.67274 -4.7416,4.63734 -3.6202,1.76515 -6.93006,3.21212 -7.35527,3.21552 -0.42522,0.003 -2.00627,0.64949 -3.51348,1.43574 -1.5072,0.78625 -2.96522,1.06575 -3.24004,0.62109 z m 16.36227,-10.66413 c 0.19532,-0.16368 0.19532,-0.77069 0,-1.3489 -0.20802,-0.61581 -1.60111,-0.2098 -3.36315,0.98022 l -3.00801,2.03149 3.00801,-0.68258 c 1.65443,-0.37544 3.16783,-0.81652 3.36315,-0.98023 z m -97.65672,7.5301 c -0.36407,-0.58908 -1.4059,-0.78795 -2.31518,-0.44194 -1.1912,0.45327 -1.34984,0.32307 -0.56759,-0.46585 1.17143,-1.18145 4.42902,-0.38458 4.42902,1.08341 0,1.21286 -0.74008,1.12879 -1.54625,-0.17562 z m -6.47514,-2.18017 c 0,-1.07093 -1.70058,-1.65425 -6.19097,-2.12358 -3.40503,-0.3559 -6.93739,-1.32258 -7.84968,-2.14818 -0.91228,-0.82562 -2.2138,-1.50112 -2.89226,-1.50112 -0.67847,0 -0.95471,-0.45118 -0.61388,-1.00267 0.34083,-0.55147 2.23182,-1.00267 4.20218,-1.00267 3.79487,0 8.21452,-2.27966 14.9519,-7.7122 5.56938,-4.49076 6.2995,-4.17215 1.98637,0.86677 -1.96972,2.30117 -3.42237,4.34293 -3.22808,4.53721 0.19428,0.19428 2.27919,-0.6733 4.63316,-1.92797 4.82281,-2.57054 12.02081,-8.62332 23.07612,-19.40463 12.14488,-11.84386 13.00876,-12.58986 13.92407,-12.02418 0.47985,0.29657 2.20805,-0.12704 3.84043,-0.94138 1.6324,-0.81433 4.3944,-1.76591 6.13783,-2.11459 4.25289,-0.85057 4.21927,1.3138 -0.0888,5.71862 -1.79227,1.83251 -2.46909,2.73321 -1.50402,2.00154 1.09906,-0.83324 1.75467,-0.92667 1.75467,-0.25006 0,0.59413 -3.12331,3.69501 -6.94068,6.89082 -6.63373,5.55359 -8.37458,8.41183 -6.01247,9.8717 0.68315,0.4222 0.96135,-0.16073 0.75201,-1.57575 -0.27296,-1.84491 0.20298,-2.30438 2.66578,-2.57355 2.18278,-0.23857 2.59176,-0.0708 1.504,0.61692 -1.26981,0.80281 -1.27669,0.94687 -0.0459,0.95993 2.93859,0.0312 -5.44151,5.00999 -11.86242,7.04777 -7.0618,2.24119 -15.8466,7.61457 -17.90504,10.95197 -1.16718,1.89236 -9.28094,6.76686 -9.28094,5.5757 0,-0.29966 -1.12802,0.19427 -2.50669,1.09763 -2.13227,1.39711 -2.50669,1.42189 -2.50669,0.16595 z m 20.05349,-0.1354 c 0,-0.20821 0.61693,-0.89056 1.37097,-1.51637 1.04279,-0.86544 1.67223,-0.77482 2.62947,0.37857 1.06878,1.28782 0.86214,1.51638 -1.371,1.51638 -1.4462,0 -2.62944,-0.17036 -2.62944,-0.37858 z m 14.03742,-2.25088 c 0,-1.39251 0.2527,-1.43338 1.75469,-0.28373 0.96507,0.73868 1.94267,1.47074 2.17246,1.62678 0.22977,0.15604 -0.55983,0.28374 -1.75469,0.28374 -1.33549,0 -2.17246,-0.62675 -2.17246,-1.62679 z m -8.02139,-1.69176 c 0,-0.81415 0.70959,-1.75257 1.57686,-2.08537 1.09961,-0.42196 1.47894,-0.10028 1.25335,1.06297 -0.41163,2.12236 -2.83021,2.99606 -2.83021,1.0224 z m 10.0673,-0.14197 c -0.92783,-1.11792 -0.75419,-1.637 0.83146,-2.4856 2.75718,-1.4756 4.14135,-1.34321 4.14135,0.39612 0,2.30446 -3.55479,3.79813 -4.97281,2.08948 z m 4.95653,-10.61621 c -1.11288,-2.68678 -1.03831,-3.22342 0.63037,-4.53587 3.61362,-2.84214 10.27803,-7.45692 10.76888,-7.45692 0.61959,0 2.98062,7.04038 2.50371,7.46592 -0.8699,0.77625 -11.83111,7.57417 -12.21286,7.57417 -0.23532,0 -0.99587,-1.37127 -1.6901,-3.0473 z m -58.59,-28.95377 c 0.88501,-0.85307 5.67431,-1.52777 7.97126,-1.12293 1.82358,0.32141 -2.95191,1.89884 -5.96592,1.97065 -1.81413,0.0432 -2.58956,-0.28457 -2.00534,-0.84772 z m 16.49399,-5.09786 c 0,-1.73796 0.66845,-2.00533 5.01336,-2.00533 6.15701,0 7.05349,2.40841 1.25334,3.36711 -5.68157,0.93911 -6.2667,0.81197 -6.2667,-1.36178 z m -15.03717,-1.28476 c -0.002,-0.43087 1.57627,-0.67705 3.50641,-0.54706 4.56717,0.30758 4.56968,1.50369 0.003,1.40572 -1.92853,-0.0414 -3.50774,-0.42776 -3.50938,-0.85866 z m -9.70706,-1.04753 c -4.40656,-1.62762 -5.37465,-2.8626 -1.2108,-1.54462 1.86717,0.59102 4.97407,1.42762 6.90422,1.8591 3.43438,0.76776 3.44509,0.78536 0.50134,0.82355 -1.65441,0.0214 -4.44204,-0.49065 -6.19476,-1.13803 z m 35.88994,-1.2272 c -0.0639,-1.1305 -0.65775,-2.59693 -1.31951,-3.25868 -0.93583,-0.93583 -0.92884,-1.20322 0.0315,-1.20322 1.55705,0 2.48778,2.33607 1.87419,4.70414 -0.40534,1.56434 -0.48578,1.53108 -0.58614,-0.24224 z m -47.99399,-3.47448 c -1.79228,-1.63046 -3.25868,-3.41777 -3.25868,-3.97178 0,-1.46 7.93801,4.24911 7.98335,5.74171 0.0585,1.92619 -1.16596,1.46749 -4.72467,-1.76993 z m 15.54146,-0.77766 c -1.51655,-0.18862 -2.75736,-0.71519 -2.75736,-1.17015 0,-1.52107 8.00644,-4.05301 12.80438,-4.04922 l 4.74242,0.004 -3.00802,1.82435 c -4.19538,2.54451 -8.53842,3.79465 -11.78142,3.39128 z m -23.65678,-8.29714 c 0.23626,-1.67328 1.08906,-2.54603 2.7123,-2.77572 2.91152,-0.41199 2.5133,1.51792 -0.7619,3.69259 -2.19349,1.4564 -2.27976,1.41586 -1.9504,-0.91687 z m -2.16208,-4.22408 c 0,-2.44168 2.99759,-6.16926 6.20875,-7.72072 2.09991,-1.01455 3.80298,-1.5472 3.78463,-1.18364 -0.0523,1.03721 -3.70987,5.17304 -4.57477,5.17304 -0.42754,0 -1.82162,0.98107 -3.09797,2.18012 -1.27635,1.19909 -2.32064,1.89712 -2.32064,1.5512 z m 107.28611,-1.11736 c 0,-1.77039 3.50205,-2.24276 4.51202,-0.60861 0.34083,0.55148 0.17875,1.00268 -0.36016,1.00268 -0.5389,0 -1.69355,0.27386 -2.56585,0.6086 -1.04078,0.39939 -1.58601,0.0547 -1.58601,-1.00267 z m 9.02406,-13.14203 c 0.68652,-0.82721 1.69941,-1.50401 2.25089,-1.50401 0.55931,0 0.45073,0.66503 -0.24555,1.50401 -0.68652,0.82722 -1.69943,1.50401 -2.25089,1.50401 -0.55932,0 -0.45074,-0.66503 0.24555,-1.50401 z m -67.36486,-3.54429 c -2.03227,-1.07342 -4.0196,-2.4768 -4.41628,-3.11863 -0.43253,-0.69987 -0.2856,-0.89774 0.36709,-0.49437 2.03062,1.255 2.13855,-0.9977 0.13018,-2.7173 -3.22808,-2.76397 -1.24002,-3.73228 3.49537,-1.70245 2.38992,1.02443 7.22714,2.17291 10.74938,2.55215 6.91732,0.74483 14.4183,3.2752 10.16412,3.42875 -1.24081,0.0448 -2.25602,0.53264 -2.25602,1.08411 0,0.55147 -0.78962,0.96706 -1.75468,0.92351 -1.04824,-0.0473 -1.25007,-0.28277 -0.50134,-0.58488 2.40756,-0.97147 1.23013,-2.37825 -1.50401,-1.79698 -4.89618,1.04093 -6.75281,1.03686 -7.50471,-0.0165 -0.44664,-0.62566 -0.74873,-0.43982 -0.76736,0.47212 -0.0273,1.33688 -0.14888,1.33688 -1.09434,0 -0.79492,-1.12401 -1.19147,-1.18937 -1.56955,-0.25868 -0.37654,0.92692 -1.0199,0.97024 -2.51623,0.16942 -1.10568,-0.59175 -2.25987,-0.82636 -2.56485,-0.52138 -0.70209,0.70209 4.02479,2.53797 9.24899,3.59223 l 4.01071,0.80939 -4.01071,0.0656 c -2.20588,0.0361 -5.67346,-0.81269 -7.70576,-1.88611 z m 54.79362,-11.3317 c 0.28183,-5.2502 0.0344,-10.60145 -0.57708,-12.48568 -0.8242,-2.53942 -0.76129,-3.67858 0.27367,-4.95516 0.80613,-0.99437 0.86996,-1.37342 0.1595,-0.94731 -2.05762,1.2341 -7.8053,-3.55225 -8.15705,-6.79278 -0.3062,-2.82062 3.28557,-15.969156 4.96406,-18.172152 0.45117,-0.592156 0.39283,-1.50414 -0.12966,-2.02662 -0.52248,-0.522479 -1.57147,-3.647613 -2.33108,-6.944734 -1.06086,-4.604674 -1.76506,-5.926439 -3.03687,-5.700134 -0.91066,0.16204 -1.65575,-0.128631 -1.65575,-0.645933 0,-0.517311 -1.12769,-0.875492 -2.50597,-0.795958 -1.78327,0.102893 -2.51063,0.722935 -2.52205,2.149942 -0.0133,1.662061 -0.18245,1.747882 -0.98803,0.501339 -0.74998,-1.160528 -0.97547,-1.193275 -0.98732,-0.143392 -0.009,0.795083 -0.64049,1.12073 -1.51935,0.783475 -0.94472,-0.362524 -1.50401,0.01038 -1.50401,1.00267 0,1.06383 -0.54692,1.369945 -1.67453,0.937245 -0.92098,-0.353412 -2.01799,-0.08679 -2.43778,0.59243 -0.508,0.821961 -0.98476,0.352617 -1.42545,-1.403293 -0.3642,-1.451067 -1.18796,-2.436553 -1.83056,-2.189963 -0.6426,0.24659 -1.61644,-0.573051 -2.16407,-1.821425 -0.5912,-1.347697 -1.89049,-2.282011 -3.19827,-2.299896 -1.21142,-0.01658 -2.52352,-0.35105 -2.91576,-0.743311 -0.39226,-0.392251 -1.20592,-0.331069 -1.80813,0.135966 -1.80479,1.399681 -5.60695,2.029001 -5.60695,0.928038 0,-0.56413 -1.13879,-0.808004 -2.53063,-0.541931 -1.39183,0.266061 -2.81515,0.0234 -3.16293,-0.539378 -0.38876,-0.629004 -0.12674,-0.710645 0.68017,-0.21194 0.90137,0.557059 1.0715,0.421174 0.54311,-0.433769 -0.45331,-0.733474 -1.6498,-0.98222 -2.91228,-0.605452 -1.17856,0.351721 -4.17327,0.84712 -6.65488,1.100881 -2.48162,0.253762 -5.75285,0.670827 -7.26939,0.926807 -2.77445,0.468297 -3.83811,-0.852653 -1.504,-1.867795 0.68934,-0.299806 -0.0548,-0.271607 -1.65356,0.06266 -2.17786,0.455346 -2.71218,0.292685 -2.13046,-0.648547 0.55466,-0.897467 0.23367,-1.084055 -1.12374,-0.653236 -1.0451,0.33171 -5.04964,-0.591486 -8.89896,-2.051535 -8.18005,-3.102711 -13.29906,-3.214597 -15.68222,-0.34279 -0.9156,1.103334 -2.10563,2.00607 -2.64453,2.00607 -1.62715,0 -6.12556,12.071481 -7.25698,19.474187 -1.77127,11.588904 -2.47119,10.171759 -2.47119,-5.003427 0,-7.956904 0.29709,-14.467921 0.66021,-14.468928 0.36311,-9.92e-4 0.48226,-3.94986 0.26476,-8.775223 -0.78699,-17.46074 -1.19178,-50.00176 -0.68597,-55.1470625 L 204.06529,0 h 62.99544 62.99545 l 0.64915,3.4602607 c 0.35704,1.9031475 0.17234,6.9791903 -0.41045,11.2800793 -0.96266,7.104516 -0.89248,7.957393 0.76718,9.323828 2.00109,1.647554 3.45277,6.016045 1.99915,6.016045 -0.49985,0 -0.90881,-1.079731 -0.90881,-2.39941 0,-3.417828 -2.66216,-4.128504 -3.46612,-0.925291 -0.70479,2.808203 -0.0731,3.760789 7.72749,11.652281 2.61949,2.650019 4.76271,5.244431 4.76271,5.765373 0,0.520935 0.33839,0.845503 0.75199,0.721267 1.23913,-0.372221 5.64107,4.407547 8.98052,9.751289 3.42423,5.479445 5.65889,12.456601 4.74903,14.827639 -0.3179,0.828451 -0.0362,3.471196 0.62604,5.872743 2.77228,10.05368 2.81699,10.770481 0.82942,13.297251 -1.04477,1.328203 -1.89959,3.133362 -1.89959,4.011449 0,0.878097 -0.43991,1.596524 -0.9776,1.596524 -1.61711,0 -4.75812,8.222832 -4.89699,12.819782 -0.15258,5.0512 -2.26471,7.70594 -6.92492,8.70397 -1.80077,0.38566 -5.60903,2.69423 -8.4628,5.13018 -2.85376,2.43593 -5.51186,4.42897 -5.90688,4.42897 -0.395,0 -3.32337,3.83523 -6.50746,8.52272 -3.18409,4.68751 -6.04629,8.55725 -6.36044,8.59944 -0.31415,0.0422 -1.36748,0.22886 -2.34072,0.4148 -1.61502,0.30856 -1.72644,-0.46415 -1.2763,-8.85012 z m -93.13309,3.35587 c -2.71459,-0.28158 -5.11276,-1.05119 -5.32925,-1.71025 -0.40395,-1.22971 2.85962,-1.23877 5.75282,-0.016 0.82721,0.34962 3.08322,0.76585 5.01337,0.92497 2.40394,0.19818 2.87769,0.45058 1.50402,0.80127 -1.10295,0.28157 -4.22637,0.28157 -6.94096,0 z m 28.49844,-1.41559 c 0,-0.77275 -1.57242,-2.33274 -3.49428,-3.46667 -3.54351,-2.0907 -4.01174,-5.1551 -0.78771,-5.1551 1.23945,0 1.28862,-0.27822 0.26674,-1.50951 -1.07352,-1.2935 -0.83349,-1.46361 1.67725,-1.18876 1.61152,0.17644 3.46431,0.65097 4.11731,1.05455 0.653,0.40358 1.98627,0.30616 2.96283,-0.21648 1.15519,-0.61824 4.63641,-0.49216 9.96368,0.36082 9.93579,1.59089 12.36638,2.31599 12.36638,3.68923 0,0.57863 0.85246,0.82912 1.89435,0.55667 1.0419,-0.27246 2.5083,-0.057 3.25868,0.47897 1.00227,0.71579 0.84708,0.80476 -0.58479,0.3353 -1.85024,-0.60666 -1.8623,-0.54312 -0.23728,1.2525 1.65757,1.83161 1.57633,1.87271 -2.5629,1.29649 -2.35112,-0.32729 -8.33558,-0.59508 -13.29882,-0.59508 -8.02139,0 -9.27473,0.25066 -11.28007,2.25602 -2.56941,2.56941 -4.26137,2.9073 -4.26137,0.85105 z m 85.47793,-1.308 c -1.2408,-0.239 -2.256,-1.11036 -2.256,-1.93637 0,-1.76244 3.60651,-1.01005 5.98024,1.24757 1.61056,1.53183 1.1219,1.6222 -3.72424,0.6888 z m -107.63333,-0.72585 c -0.23694,-0.23695 -3.09223,-0.57536 -6.3451,-0.75202 -4.90241,-0.26624 -6.44412,-0.81934 -9.01103,-3.23277 l -3.09675,-2.91159 3.00802,0.66235 c 2.8288,0.62287 5.52153,1.07934 13.27325,2.2501 3.28648,0.49636 6.81421,4.41471 3.97459,4.41471 -0.75469,0 -1.56604,-0.19385 -1.80298,-0.43078 z m 2.66229,-3.14586 c -1.07046,-0.79019 -1.60224,-1.43672 -1.18173,-1.43672 0.42054,0 0.0878,-0.6768 -0.7394,-1.50402 -0.82721,-0.82719 -1.93918,-1.504 -2.47104,-1.504 -0.53185,0 -1.21181,-0.63793 -1.51101,-1.41764 -0.60279,-1.57083 -10.16918,-4.04675 -13.25068,-3.42945 -1.20482,0.24133 -2.70682,-0.54008 -3.8941,-2.02594 -1.88905,-2.3641 -1.89015,-2.44999 -0.0484,-3.79665 3.28991,-2.40564 15.30748,0.14566 18.99069,4.03165 1.62159,1.71087 4.59348,6.5333 4.47859,7.26734 -0.0561,0.35777 0.43232,0.98061 1.08516,1.38408 0.65283,0.40348 1.02977,1.43885 0.83764,2.30084 -0.30628,1.37413 -0.58914,1.39021 -2.29564,0.13051 z m 120.76316,-3.2275 c 0,-2.42174 -2.68983,-4.86713 -6.36199,-5.78377 -2.08052,-0.51933 -2.4876,-0.94339 -1.50401,-1.56677 2.06624,-1.3095 6.48553,-1.04477 7.73728,0.46349 1.69993,2.04828 2.50204,7.32938 1.2324,8.11406 -0.65552,0.40513 -1.10368,-0.093 -1.10368,-1.22701 z"
       style="fill:#000000;stroke-width:1.0015748;stroke-miterlimit:4;stroke-dasharray:none;stroke:none" />
    <rect
       ry="0"
       rx="19.456251"
       y="1.7099999e-05"
       x="-2.29006"
       height="376.4147"
       width="89.790062"
       id="rect1751"
       style="opacity:1;fill:#000000;fill-opacity:1;fill-rule:evenodd;stroke-width:0;stroke:none;stroke-miterlimit:4;stroke-dasharray:none" />
    <rect
       style="opacity:1;fill:#000000;fill-opacity:1;fill-rule:evenodd;stroke-width:0;stroke:none;stroke-miterlimit:4;stroke-dasharray:none"
       id="rect1751-9"
       width="88.043846"
       height="375.36417"
       x="462.5"
       y="0.63852525"
       rx="19.456251"
       ry="0" />
  </g>
</svg>
